<svg aria-hidden="true" style="position: absolute; width: 0; height: 0; overflow: hidden;" version="1.1" xmlns="http://www.w3.org/2000/svg" xmlns:xlink="http://www.w3.org/1999/xlink">
<defs>
<symbol id="icon-vidya" viewBox="0 0 79 32">
<path d="M0 0.086h79.012v31.605h-79.012v-31.605z"></path>
</symbol>
<symbol id="icon-kitchko" viewBox="0 0 130 32">
<path d="M129.73 0h-129.73v32h129.73v-32z"></path>
</symbol>
<symbol id="icon-hst" viewBox="0 0 126 32">
<path fill="#888" style="fill: var(--color1, #888)" d="M82.052 11.125h-1.658v-2.854h-2.456v2.854h-1.668v-6.835h1.668v2.713h2.456v-2.713h1.658v6.835z"></path>
<path fill="#888" style="fill: var(--color1, #888)" d="M84.888 11.125h-1.663v-6.835h1.663v6.835z"></path>
<path fill="#888" style="fill: var(--color1, #888)" d="M91.709 10.28c-0.257 0.282-0.632 0.508-1.126 0.681s-1.036 0.258-1.625 0.258c-0.906 0-1.629-0.274-2.171-0.822s-0.831-1.31-0.869-2.286l-0.005-0.591c0-0.673 0.12-1.26 0.361-1.76 0.241-0.504 0.584-0.89 1.031-1.159 0.45-0.272 0.969-0.408 1.558-0.408 0.861 0 1.53 0.196 2.005 0.587 0.478 0.388 0.757 0.969 0.836 1.742h-1.606c-0.057-0.382-0.181-0.654-0.371-0.817s-0.459-0.244-0.808-0.244c-0.418 0-0.741 0.175-0.969 0.526s-0.344 0.851-0.347 1.502v0.413c0 0.682 0.117 1.195 0.352 1.54 0.237 0.341 0.61 0.512 1.116 0.512 0.434 0 0.757-0.095 0.969-0.286v-1.061h-1.159v-1.131h2.827v2.807z"></path>
<path fill="#888" style="fill: var(--color1, #888)" d="M98.46 11.125h-1.658v-2.854h-2.456v2.854h-1.667v-6.835h1.667v2.713h2.456v-2.713h1.658v6.835z"></path>
<path fill="#888" style="fill: var(--color1, #888)" d="M79.838 17.685c0-0.241-0.087-0.429-0.261-0.563-0.171-0.135-0.474-0.274-0.907-0.418s-0.789-0.283-1.064-0.418c-0.896-0.435-1.344-1.033-1.344-1.793 0-0.379 0.111-0.712 0.332-1 0.225-0.291 0.542-0.516 0.95-0.676 0.408-0.163 0.868-0.244 1.378-0.244 0.497 0 0.942 0.088 1.335 0.263 0.396 0.175 0.703 0.426 0.921 0.751 0.219 0.322 0.328 0.692 0.328 1.108h-1.663c0-0.278-0.087-0.494-0.261-0.648-0.171-0.153-0.404-0.23-0.698-0.23-0.298 0-0.534 0.066-0.708 0.197-0.171 0.128-0.257 0.293-0.257 0.493 0 0.175 0.095 0.335 0.285 0.479 0.19 0.141 0.524 0.288 1.002 0.441 0.478 0.15 0.871 0.313 1.178 0.488 0.747 0.426 1.121 1.012 1.121 1.76 0 0.598-0.228 1.067-0.684 1.408s-1.082 0.512-1.876 0.512c-0.561 0-1.069-0.099-1.525-0.296-0.453-0.2-0.795-0.472-1.026-0.817-0.228-0.347-0.342-0.746-0.342-1.197h1.672c0 0.366 0.095 0.637 0.285 0.812 0.193 0.172 0.505 0.258 0.936 0.258 0.275 0 0.493-0.058 0.651-0.174 0.161-0.119 0.242-0.285 0.242-0.498z"></path>
<path fill="#888" style="fill: var(--color1, #888)" d="M84.712 16.958l-0.684 0.742v1.803h-1.667v-6.835h1.667v3.014l0.58-0.869 1.492-2.145h2.062l-2.337 3.023 2.337 3.812h-1.976l-1.473-2.544z"></path>
<path fill="#888" style="fill: var(--color1, #888)" d="M90.36 19.502h-1.663v-6.835h1.663v6.835z"></path>
<path fill="#888" style="fill: var(--color1, #888)" d="M93.187 18.235h2.902v1.268h-4.57v-6.835h1.668v5.567z"></path>
<path fill="#888" style="fill: var(--color1, #888)" d="M98.459 18.235h2.903v1.268h-4.57v-6.835h1.667v5.567z"></path>
<path fill="#888" style="fill: var(--color1, #888)" d="M81.7 22.317h-2.076v5.563h-1.667v-5.563h-2.038v-1.272h5.781v1.272z"></path>
<path fill="#888" style="fill: var(--color1, #888)" d="M84.978 25.467h-0.903v2.413h-1.667v-6.835h2.722c0.82 0 1.462 0.18 1.924 0.54s0.694 0.868 0.694 1.526c0 0.476-0.098 0.87-0.294 1.183-0.193 0.313-0.497 0.566-0.912 0.76l1.444 2.756v0.070h-1.786l-1.221-2.413zM84.075 24.195h1.055c0.317 0 0.554-0.081 0.713-0.244 0.162-0.166 0.242-0.396 0.242-0.69s-0.081-0.524-0.242-0.69c-0.161-0.169-0.399-0.253-0.713-0.253h-1.055v1.878z"></path>
<path fill="#888" style="fill: var(--color1, #888)" d="M92.683 26.603h-2.285l-0.399 1.277h-1.781l2.537-6.835h1.568l2.556 6.835h-1.791l-0.404-1.277zM90.797 25.331h1.487l-0.746-2.371-0.741 2.371z"></path>
<path fill="#888" style="fill: var(--color1, #888)" d="M97.163 27.88h-1.662v-6.835h1.662v6.835z"></path>
<path fill="#888" style="fill: var(--color1, #888)" d="M104.098 27.88h-1.657l-2.451-4.253v4.253h-1.668v-6.835h1.668l2.447 4.253v-4.253h1.662v6.835z"></path>
<path fill="#888" style="fill: var(--color1, #888)" d="M106.929 27.88h-1.662v-6.835h1.662v6.835z"></path>
<path fill="#888" style="fill: var(--color1, #888)" d="M113.866 27.88h-1.658l-2.451-4.253v4.253h-1.667v-6.835h1.667l2.447 4.253v-4.253h1.663v6.835z"></path>
<path fill="#888" style="fill: var(--color1, #888)" d="M120.583 27.035c-0.256 0.282-0.631 0.509-1.126 0.681s-1.036 0.258-1.624 0.258c-0.906 0-1.63-0.274-2.171-0.822s-0.832-1.31-0.87-2.286l-0.005-0.591c0-0.673 0.121-1.26 0.362-1.76 0.24-0.504 0.584-0.89 1.031-1.16 0.45-0.272 0.969-0.408 1.558-0.408 0.861 0 1.529 0.196 2.004 0.587 0.478 0.388 0.757 0.969 0.836 1.742h-1.606c-0.056-0.382-0.18-0.654-0.37-0.817s-0.459-0.244-0.808-0.244c-0.418 0-0.741 0.175-0.969 0.526s-0.343 0.851-0.347 1.502v0.413c0 0.682 0.117 1.195 0.352 1.54 0.238 0.341 0.61 0.512 1.116 0.512 0.434 0 0.757-0.095 0.97-0.286v-1.061h-1.16v-1.131h2.827v2.807z"></path>
<path fill="#888" style="fill: var(--color1, #888)" d="M119.193 10.151c-0.052 0.052-0.081 0.121-0.081 0.194v7.783c0 0.152-0.125 0.275-0.278 0.275h-12.369c-0.154 0-0.278-0.123-0.278-0.275v-12.223c0-0.152 0.124-0.275 0.278-0.275h12.394c0.074 0 0.144-0.029 0.196-0.080l0.557-0.549c0.175-0.173 0.050-0.469-0.197-0.469h-14.062c-0.153 0-0.278 0.123-0.278 0.275v14.421c0 0.152 0.125 0.275 0.278 0.275h14.594c0.153 0 0.277-0.123 0.277-0.275v-9.431c0-0.245-0.3-0.367-0.474-0.194l-0.556 0.549z"></path>
<path fill="#888" style="fill: var(--color1, #888)" d="M108.062 10.534l2.033-1.443c0.183-0.13 0.437-0.092 0.575 0.084l2.17 2.804c0.154 0.2 0.454 0.217 0.63 0.036l11.367-11.623c0.144-0.147 0.374-0.168 0.542-0.049l0.322 0.227c0.195 0.137 0.233 0.408 0.083 0.593l-12.733 15.728c-0.17 0.21-0.494 0.205-0.657-0.009l-4.422-5.765c-0.142-0.185-0.102-0.448 0.089-0.584z"></path>
<path fill="#888" style="fill: var(--color1, #888)" d="M69.354 0h-66.574c-1.535 0-2.78 1.23-2.78 2.747v26.506c0 1.517 1.245 2.747 2.78 2.747h66.574c1.535 0 2.78-1.23 2.78-2.747v-26.506c0-1.517-1.245-2.747-2.78-2.747z"></path>
<path fill="#fff" style="fill: var(--color2, #fff)" d="M25.636 27.742h-5.755v-9.908h-8.526v9.908h-5.788v-23.726h5.788v9.419h8.526v-9.419h5.755v23.726z"></path>
<path fill="#fff" style="fill: var(--color2, #fff)" d="M41.023 21.436c0-0.837-0.302-1.488-0.907-1.956-0.594-0.467-1.644-0.951-3.15-1.45s-2.738-0.983-3.694-1.45c-3.111-1.51-4.667-3.585-4.667-6.225 0-1.314 0.385-2.471 1.154-3.471 0.781-1.010 1.88-1.793 3.298-2.347 1.418-0.565 3.012-0.847 4.782-0.847 1.726 0 3.271 0.304 4.634 0.913 1.374 0.608 2.441 1.477 3.199 2.607 0.759 1.119 1.138 2.401 1.138 3.846h-5.772c0-0.967-0.302-1.716-0.907-2.249-0.594-0.532-1.402-0.799-2.424-0.799-1.034 0-1.852 0.228-2.457 0.684-0.594 0.445-0.891 1.016-0.891 1.711 0 0.608 0.33 1.162 0.99 1.662 0.66 0.489 1.82 0.999 3.48 1.532 1.66 0.521 3.023 1.086 4.090 1.695 2.595 1.477 3.892 3.514 3.892 6.111 0 2.075-0.791 3.705-2.375 4.889s-3.754 1.776-6.514 1.776c-1.946 0-3.71-0.342-5.294-1.027-1.572-0.695-2.759-1.64-3.562-2.835-0.791-1.206-1.187-2.591-1.187-4.155h5.805c0 1.271 0.33 2.211 0.989 2.819 0.671 0.598 1.754 0.896 3.249 0.896 0.956 0 1.71-0.201 2.259-0.603 0.561-0.413 0.841-0.989 0.841-1.727z"></path>
<path fill="#fff" style="fill: var(--color2, #fff)" d="M67.954 8.432h-7.207v19.31h-5.788v-19.31h-7.075v-4.416h20.070v4.416z"></path>
</symbol>
<symbol id="icon-foxo" viewBox="0 0 73 32">
<path fill="#888" style="fill: var(--color1, #888)" d="M53.608 10.233h-7.103l-3.643 5.7-3.704-5.7h-7.47l7.256 10.42-7.133 10.358h6.98c0.276-0.429 0.888-1.348 1.806-2.758s1.592-2.452 1.99-3.095l3.827 5.853h7.44c-0.306-0.46-2.786-3.984-7.44-10.604l7.195-10.175z"></path>
<path fill="#888" style="fill: var(--color1, #888)" d="M23.605 9.743c-5.909 0-10.685 4.781-10.685 10.696s4.776 10.696 10.685 10.696c5.909 0 10.685-4.781 10.685-10.696s-4.776-10.696-10.685-10.696zM23.605 25.525c-2.817 0-5.082-2.268-5.082-5.087s2.266-5.087 5.082-5.087c2.817 0 5.082 2.268 5.082 5.087 0 2.789-2.266 5.087-5.082 5.087z"></path>
<path fill="#888" style="fill: var(--color1, #888)" d="M14.206 10.202h-4.531v-1.594c0-1.042 0.276-1.777 0.827-2.176 0.551-0.429 1.194-0.644 1.898-0.644s1.316 0.061 1.898 0.215v-5.21c-0.612-0.306-1.623-0.46-3.031-0.46-2.48 0-4.439 0.736-5.848 2.207s-2.112 3.432-2.112 5.853v1.808h-3.306v5.363h3.306v15.507h6.368v-15.507h3c0.398-0.889 0.918-1.686 1.531-2.421v-2.942z"></path>
<path fill="#888" style="fill: var(--color1, #888)" d="M68.395 19.949c1.623 0.613 3.674 0.184 4.776-0.981 0.153-0.184 0.092-0.46-0.092-0.552-1.041-0.521-1.745-1.41-2.327-2.421-0.092-0.184-0.214-0.337-0.306-0.521 0.765 0.031 1.408-0.153 1.408-0.153-0.276 0.061-0.674-0.061-1.133-0.306 0.337-0.061 0.582-0.153 0.582-0.153-0.337 0.123-1.102-0.337-1.837-0.95-0.031-0.031-0.031-0.031-0.061-0.061-1.837-1.716-4.684-3.524-8.48-3.524s-7.746 2.85-9.277 6.528c-0.429 0.766-1.133 1.839-1.868 1.839 0 0 0.857 0.092 1.316-0.153-0.184 0.827-0.582 2.819-0.551 3.218l1.316-2.39c-0.367 0.705-1.072 2.636-0.122 5.149 0.122-0.981 0.49-1.931 0.49-1.931-0.214 1.655-0.061 2.666 0.276 3.616 0.276 0.674 0.643 1.287 1.133 1.869 2.082 2.237 5.113 3.586 8.419 3.371 0 0 0 0 0.031 0 5.174-0.337 9.399-4.505 9.828-9.654 0.031-0.46 0.061-1.042 0.031-1.471 0 0-1.194 0.644-2.664 0.49-1.286-0.153-2.725-1.195-3.031-1.471 0 0.031 0 0.061 0.031 0.061 0.031 0.061 0.031 0.123 0.061 0.184s0.031 0.153 0.061 0.214c0.031 0.092 0.031 0.153 0.061 0.245 0 0.061 0.031 0.123 0.031 0.184 0.031 0.245 0.061 0.49 0.061 0.736 0 2.819-2.296 5.118-5.113 5.118s-5.113-2.298-5.113-5.118v0.031c0-1.348 0.52-2.605 1.378-3.524 0 0 0 0 0.031-0.031 0.276-0.276 0.582-0.552 0.918-0.766l0.031-0.031c0 0 0.031 0 0.031-0.031 0.061-0.031 0.092-0.061 0.153-0.092s0.092-0.061 0.153-0.092c0 0-0 0 0.031 0 0.122-0.061 0.245-0.123 0.367-0.184 0.031 0 0.031-0.031 0.061-0.031 0.612-0.276 1.286-0.398 1.99-0.398 0.153 0 0.306 0 0.459 0.031 0.52 0.031 1.041 0.184 1.531 0.368 0.031 0 0.031 0 0.061 0.031 0.153 0.061 0.276 0.123 0.429 0.214 0 0 0.031 0 0.031 0.031 0.306 0.184 0.612 0.398 0.888 0.613 0.214 0.245 0.459 0.613 0.582 1.165 0.031-0.092 0.459-0.552-0.949-2.636-0.061-0.153-0.122-0.245-0.122-0.245 0.704 1.44 2.878 4.137 4.011 4.566zM68.916 18.416c-0.245-0.429-0.337-0.919-0.306-0.95 0.429 0.153 0.857 0.306 1.316 0.49 0.214 0.092 0.429-0.123 0.367-0.337-0.153-0.766-0.306-1.624-0.276-1.655 0.367 0.521 1.225 1.869 2.602 2.574 0.214 0.092 0.214 0.429 0 0.521-2.143 1.195-4.654 0.797-6.031-1.042 1.47 0.521 1.806 0.644 2.143 0.644 0.153 0.031 0.245-0.123 0.184-0.245z"></path>
<path fill="#888" style="fill: var(--color1, #888)" d="M69.681 12.349h0.337v-1.256h0.49v-0.337h-1.316v0.337h0.49v1.256z"></path>
<path fill="#888" style="fill: var(--color1, #888)" d="M71.059 11.307l0.429 1.042h0.276l0.429-1.042v1.042h0.337v-1.594h-0.49l-0.398 1.073-0.459-1.073h-0.459v1.594h0.337v-1.042z"></path>
</symbol>
<symbol id="icon-walker" viewBox="0 0 31 32">
<path fill="#888" style="fill: var(--color1, #888)" d="M26.349 5.965c-0.015 0-0.046-0.023-0.054-0.062-0.015-0.054 0.008-0.1 0.069-0.108 0.046-0.008 0.069 0.023 0.077 0.062 0.015 0.054 0 0.093-0.093 0.108z"></path>
<path fill="#888" style="fill: var(--color1, #888)" d="M22.67 15.205c-0.015-0.015-0.039-0.039-0.039-0.054 0.008-0.046 0.039-0.062 0.077-0.039 0.015 0.008 0.031 0.046 0.023 0.062s-0.039 0.023-0.062 0.031z"></path>
<path fill="#888" style="fill: var(--color1, #888)" d="M11.771 7.538c0.008-0.015 0.015-0.046 0.039-0.054 0.046-0.015 0.069 0.008 0.077 0.054 0 0.023-0.015 0.054-0.031 0.062-0.039 0-0.077-0.008-0.085-0.062z"></path>
<path fill="#888" style="fill: var(--color1, #888)" d="M4.559 8.078c-0.015 0.031-0.039 0.039-0.046 0.015-0.008-0.015-0.008-0.039-0.008-0.062 0-0.008 0.015-0.015 0.023-0.015 0.031 0.015 0.039 0.031 0.031 0.062z"></path>
<path fill="#888" style="fill: var(--color1, #888)" d="M31.371 14.048c-0.015 0.031-0.039 0.039-0.062 0.023-0.015-0.008-0.023-0.031-0.039-0.046 0.023-0.008 0.046-0.023 0.062-0.023s0.023 0.031 0.039 0.046z"></path>
<path fill="#888" style="fill: var(--color1, #888)" d="M19.107 6.828c-0.015-0.008-0.031-0.015-0.046-0.031 0.008-0.008 0.015-0.023 0.023-0.023 0.015 0.008 0.031 0.015 0.046 0.023-0.008 0.008-0.015 0.015-0.023 0.031z"></path>
<path fill="#888" style="fill: var(--color1, #888)" d="M10.699 7.669c0.015-0.285 0.154-0.501 0.285-0.717 0.771-1.242 1.543-2.491 2.314-3.733 0.609-0.987 1.226-1.967 1.836-2.954 0.208-0.332 0.486-0.339 0.71-0.008 0.741 1.134 1.481 2.268 2.214 3.394 0.956 1.466 1.921 2.939 2.877 4.404 0.895 1.373 1.79 2.746 2.684 4.119 0.671 1.034 1.35 2.059 2.021 3.085 0.231 0.355 0.239 0.733 0.023 1.095-1.103 1.844-2.222 3.687-3.332 5.531-0.309 0.509-0.617 1.018-0.926 1.527-0.193 0.316-0.463 0.332-0.663 0.023-0.602-0.918-1.196-1.836-1.79-2.754-0.748-1.157-1.496-2.314-2.245-3.471-0.694-1.072-1.388-2.152-2.090-3.224-0.748-1.149-1.496-2.299-2.245-3.448-0.517-0.787-1.034-1.574-1.535-2.368-0.069-0.139-0.085-0.332-0.139-0.501z"></path>
<path fill="#888" style="fill: var(--color1, #888)" d="M0.054 7.361c-0.093-0.363 0.147-0.617 0.309-0.879 1.196-1.936 2.407-3.872 3.61-5.816 0.108-0.17 0.201-0.339 0.316-0.501 0.162-0.216 0.409-0.216 0.563 0.008 0.401 0.602 0.795 1.211 1.196 1.82 0.694 1.064 1.396 2.137 2.090 3.201 0.64 0.987 1.28 1.975 1.921 2.962 0.733 1.134 1.473 2.26 2.214 3.394 0.501 0.771 1.003 1.543 1.504 2.322 0.316 0.486 0.64 0.972 0.956 1.466 0.208 0.324 0.224 0.686 0.031 1.003-0.625 1.057-1.265 2.106-1.905 3.155-0.694 1.149-1.381 2.306-2.075 3.456-0.116 0.201-0.231 0.393-0.37 0.586-0.162 0.231-0.409 0.231-0.555-0.008-0.555-0.887-1.111-1.782-1.666-2.669-0.748-1.211-1.496-2.414-2.245-3.625-0.802-1.296-1.604-2.592-2.407-3.888-0.795-1.28-1.597-2.569-2.391-3.849-0.324-0.525-0.656-1.041-0.964-1.574-0.093-0.162-0.123-0.363-0.185-0.548 0.008-0.008 0.031-0.015 0.054-0.015z"></path>
<path fill="#888" style="fill: var(--color1, #888)" d="M31.055 6.99c0.023 0.324-0.093 0.586-0.255 0.848-0.98 1.604-1.944 3.224-2.916 4.836-0.386 0.64-0.779 1.28-1.172 1.921-0.208 0.339-0.463 0.339-0.679 0.008-1.057-1.612-2.121-3.224-3.178-4.836-0.355-0.54-0.71-1.080-1.064-1.62-0.231-0.363-0.231-0.733-0.015-1.088 1.095-1.79 2.198-3.564 3.301-5.353 0.278-0.455 0.555-0.91 0.833-1.358 0.031-0.046 0.062-0.1 0.093-0.147 0.193-0.27 0.455-0.27 0.64 0 0.316 0.447 0.617 0.895 0.933 1.342 0.856 1.242 1.712 2.476 2.569 3.718 0.27 0.393 0.555 0.764 0.802 1.172 0.085 0.154 0.069 0.37 0.108 0.555z"></path>
<path fill="#888" style="fill: var(--color1, #888)" d="M6.742 27.733c-0.1 0.424-0.185 0.802-0.278 1.18-0.154 0.687-0.309 1.373-0.471 2.059-0.1 0.424-0.401 0.656-0.833 0.648-0.224 0-0.455-0.008-0.663-0.069-0.123-0.039-0.27-0.177-0.309-0.301-0.123-0.409-0.216-0.833-0.301-1.25-0.154-0.741-0.293-1.481-0.44-2.221-0.069-0.355-0.147-0.717-0.208-1.072-0.031-0.193 0.046-0.27 0.239-0.278 0.255 0 0.517 0.008 0.771 0 0.154-0.008 0.224 0.077 0.239 0.216 0.108 0.733 0.208 1.458 0.316 2.191 0.085 0.563 0.177 1.126 0.309 1.697 0.046-0.177 0.093-0.363 0.131-0.54 0.216-0.98 0.424-1.967 0.64-2.947 0.069-0.309 0.193-0.409 0.501-0.409 0.247 0 0.501 0 0.748 0 0.231 0 0.362 0.093 0.417 0.316 0.116 0.486 0.216 0.972 0.324 1.458 0.154 0.702 0.316 1.412 0.517 2.121 0.031-0.177 0.062-0.355 0.085-0.532 0.1-0.663 0.201-1.334 0.293-1.998 0.062-0.424 0.123-0.848 0.185-1.273 0.031-0.247 0.093-0.301 0.347-0.301 0.224 0 0.447 0 0.671 0 0.208 0 0.293 0.108 0.255 0.301-0.177 0.879-0.347 1.759-0.525 2.638-0.108 0.54-0.216 1.080-0.324 1.62-0.093 0.471-0.309 0.64-0.787 0.64-0.185 0-0.378 0.008-0.555-0.039-0.432-0.116-0.54-0.486-0.625-0.864-0.216-0.957-0.432-1.913-0.648-2.869 0.023-0.031 0.008-0.054-0.023-0.123z"></path>
<path fill="#888" style="fill: var(--color1, #888)" d="M17.864 29.467c0 0.586 0 1.165 0 1.751 0 0.332-0.046 0.386-0.37 0.386-0.201 0-0.401 0-0.594 0-0.17 0-0.255-0.069-0.255-0.255 0-2.16 0-4.312 0-6.472 0-0.17 0.085-0.247 0.247-0.247 0.224 0 0.447 0 0.671 0 0.247 0 0.309 0.069 0.309 0.309 0 1.118 0 2.237 0 3.355 0 0.069 0 0.139 0 0.27 0.077-0.085 0.123-0.131 0.162-0.185 0.44-0.586 0.872-1.172 1.311-1.759 0.1-0.131 0.216-0.201 0.393-0.193 0.285 0.015 0.578 0 0.864 0.008 0.062 0 0.154 0.031 0.177 0.069 0.023 0.046-0.015 0.139-0.054 0.185-0.548 0.686-1.103 1.365-1.666 2.036-0.1 0.123-0.1 0.201-0.008 0.332 0.571 0.764 1.134 1.535 1.697 2.306 0.093 0.123 0.046 0.231-0.1 0.239-0.37 0.008-0.748 0.015-1.118-0.008-0.093-0.008-0.193-0.1-0.255-0.185-0.409-0.571-0.802-1.157-1.203-1.736-0.046-0.069-0.1-0.139-0.154-0.216-0.023-0.008-0.039 0-0.054 0.008z"></path>
<path fill="#888" style="fill: var(--color1, #888)" d="M21.744 29.437c-0.093 0.594 0.301 1.126 0.864 1.134 0.586 0.008 1.165-0.031 1.751-0.054 0.27-0.015 0.309 0.008 0.309 0.27 0 0.162-0.008 0.324 0 0.478s-0.069 0.208-0.208 0.239c-0.748 0.177-1.512 0.147-2.26 0.085-0.686-0.054-1.219-0.463-1.496-1.118-0.116-0.278-0.185-0.594-0.201-0.887-0.023-0.517-0.023-1.041 0.046-1.55 0.123-0.941 0.864-1.589 1.82-1.658 0.54-0.039 1.064 0 1.535 0.301 0.54 0.347 0.818 0.856 0.91 1.466 0.046 0.332 0.039 0.679 0.046 1.018 0.008 0.216-0.054 0.278-0.27 0.278-0.864 0-1.72 0-2.584 0-0.093 0-0.17 0-0.262 0zM23.611 28.55c0-0.424-0.1-0.794-0.478-1.003-0.309-0.17-0.648-0.17-0.949 0.015-0.363 0.216-0.478 0.571-0.455 0.995 0.633-0.008 1.25-0.008 1.882-0.008z"></path>
<path fill="#888" style="fill: var(--color1, #888)" d="M13.090 31.289c-0.116 0.054-0.193 0.093-0.27 0.139-0.501 0.27-1.057 0.239-1.581 0.162-0.494-0.077-0.81-0.417-0.941-0.926-0.108-0.44-0.108-0.872 0.069-1.28 0.224-0.517 0.686-0.733 1.211-0.802 0.417-0.054 0.841-0.054 1.265-0.069 0.139 0 0.201-0.046 0.185-0.185-0.008-0.093 0-0.193 0-0.285-0.015-0.424-0.208-0.633-0.625-0.64-0.393-0.008-0.794 0.015-1.196 0.031-0.147 0.008-0.293 0.023-0.44 0.031-0.162 0.015-0.239-0.054-0.239-0.216s0-0.324 0-0.478c0-0.139 0.054-0.224 0.185-0.247 0.262-0.046 0.532-0.108 0.794-0.116 0.494-0.008 0.995-0.039 1.473 0.039 0.81 0.131 1.273 0.748 1.28 1.62 0.008 1.080 0 2.16 0 3.232 0 0.231-0.069 0.301-0.301 0.301-0.185 0-0.37 0-0.555 0-0.185 0.008-0.324-0.046-0.316-0.309zM13.028 29.353c-0.347 0-0.671-0.031-0.987 0.008-0.494 0.062-0.756 0.733-0.47 1.142 0.039 0.054 0.116 0.1 0.185 0.123 0.416 0.139 0.81 0.015 1.188-0.162 0.039-0.015 0.077-0.085 0.077-0.131 0.015-0.324 0.008-0.64 0.008-0.98z"></path>
<path fill="#888" style="fill: var(--color1, #888)" d="M14.833 28.095c0-1.057 0-2.121 0-3.178 0-0.239 0.062-0.301 0.293-0.301 0.208 0 0.424 0 0.633 0 0.247 0 0.309 0.062 0.309 0.301 0 0.548 0 1.088 0 1.635 0 1.55 0 3.109 0 4.659 0 0.339-0.039 0.378-0.37 0.378-0.185 0-0.37 0-0.555 0-0.247 0-0.309-0.062-0.309-0.308 0-1.057 0-2.121 0-3.186z"></path>
<path fill="#888" style="fill: var(--color1, #888)" d="M26.419 26.699c0.309-0.1 0.609-0.208 0.91-0.309 0.008 0 0.015 0 0.015-0.008 0.471-0.085 0.54-0.031 0.54 0.44 0 0.1-0.008 0.208 0 0.309 0.008 0.177-0.062 0.239-0.239 0.27-0.339 0.062-0.671 0.154-1.003 0.231-0.154 0.039-0.193 0.131-0.193 0.278 0.008 1.111 0 2.221 0 3.332 0 0.293-0.054 0.347-0.355 0.347-0.208 0-0.409 0.008-0.617 0-0.201-0.008-0.262-0.077-0.262-0.27 0-1.55 0-3.093 0-4.644 0-0.208 0.054-0.262 0.262-0.262 0.185 0 0.37 0 0.555 0 0.324 0.008 0.332 0.015 0.386 0.285z"></path>
</symbol>
<symbol id="icon-f45" viewBox="0 0 65 32">
<path d="M64.889 0.347h-64.889v31.653h64.889v-31.653z"></path>
</symbol>
<symbol id="icon-oxy33" viewBox="0 0 235 32">
<path fill="#888" style="fill: var(--color1, #888)" d="M67.443 1.111h-14.842l12.593 15.226-21.588 15.662h14.392l12.593-9.571 8.096 9.571h14.842l-13.492-15.662 21.588-15.226h-14.842l-12.143 8.701-7.196-8.701z"></path>
<path fill="#888" style="fill: var(--color1, #888)" d="M115.567 21.994l-14.392-21.317 13.942 0.435 8.096 12.616 13.492-12.616h14.392l-24.736 20.882-2.699 10.006h-10.794l2.699-10.006z"></path>
<path fill="#888" style="fill: var(--color1, #888)" d="M158.742 0.677l-9.445 8.701h27.931c1.446 0 2.262 1.663 1.376 2.806-0.33 0.425-0.838 0.674-1.376 0.674h-15.787l-7.646 6.961h20.003c1.312 0 2.010 1.55 1.139 2.532-0.288 0.326-0.704 0.513-1.139 0.513h-23.152l-9.445 9.136h32.814c5.419 0 10.27-3.366 12.165-8.444l1.122-3.004c0.762-2.040-0.747-4.214-2.925-4.214 2.118 0 3.97-1.433 4.499-3.483l1.59-6.153c0.787-3.051-1.515-6.026-4.667-6.026h-27.058z"></path>
<path fill="#888" style="fill: var(--color1, #888)" d="M201.918 0.677l-9.445 8.701h27.931c1.446 0 2.262 1.663 1.376 2.806-0.33 0.425-0.838 0.674-1.376 0.674h-15.787l-7.646 6.961h20.003c1.314 0 2.010 1.55 1.139 2.532-0.288 0.326-0.704 0.513-1.139 0.513h-23.152l-9.445 9.136h32.814c5.419 0 10.27-3.366 12.165-8.444l1.122-3.004c0.762-2.040-0.747-4.214-2.925-4.214 2.118 0 3.97-1.433 4.499-3.483l1.59-6.153c0.789-3.051-1.515-6.026-4.667-6.026h-27.058z"></path>
<path fill="#888" style="fill: var(--color1, #888)" d="M2.73 27.548c-1.338-1.294-2.913-3.859-2.713-5.793 0.285-3.402 0.719-6.461 1.985-9.698 0.598-1.505 1.534-3.020 2.713-4.161 0.794-0.928 1.588-1.824 2.68-2.496 2.425-1.53 4.637-2.896 7.478-3.681 3.531-1.051 7.37-1.498 11.051-1.664 4.525-0.204 9.094 0.199 11.581 0.64 1.82 0.32 3.607 0.896 5.36 1.728 1.654 0.768 2.945 1.888 4.070 3.137 0.523 0.595 0.845 1.411 1.154 2.191 0.024 0.059 0.047 0.118 0.070 0.177 1.258 3.227-0.018 8.549-1.423 11.81-0.624 1.409-1.328 2.751-2.349 3.937-1.712 1.987-3.601 3.613-5.956 4.833-2.314 1.199-4.616 1.894-7.147 2.528-2.309 0.57-4.897 0.928-7.279 0.928l-0.205 0.003c-6.096 0.075-12.055 0.148-17.761-2.275-1.257-0.544-2.349-1.248-3.309-2.144zM19.374 9.207c-1.654 0.288-3.176 0.736-4.599 1.6-3.014 1.778-3.64 5.731-3.64 8.802 0 0.768 1.026 2.176 1.754 2.432 5.44 1.846 13.547 1.876 18.926 0.096 1.191-0.384 2.151-0.96 3.011-1.792 1.746-1.747 2.812-4.716 2.812-7.137 0-1.856-1.125-3.393-2.978-3.745-4.867-0.919-10.415-1.104-15.287-0.256z"></path>
</symbol>
<symbol id="icon-eyetelligence" viewBox="0 0 165 32">
<path fill="#323232" style="fill: var(--color3, #323232)" d="M113.209 27.094c-1.596 0-3.168-0.473-4.266-1.544l0.923-1.17c1.047 0.872 2.17 1.22 3.318 1.22 1.821 0 3.418-1.046 3.418-3.088v-1.893c-0.624 1.146-1.921 1.967-3.492 1.967-2.794 0-4.765-2.117-4.765-5.379 0-2.938 1.895-5.528 4.814-5.528 2.819 0 3.543 1.868 3.543 1.868v-1.868c0.873 0 1.571 0.697 1.571 1.569v8.965c-0.025 3.362-2.295 4.881-5.064 4.881zM113.309 13.248c-2.12 0-3.293 1.868-3.293 3.885 0 2.291 1.197 3.959 3.343 3.959 1.971 0 3.318-1.893 3.318-3.91 0-2.117-1.372-3.935-3.368-3.935z"></path>
<path fill="#323232" style="fill: var(--color3, #323232)" d="M44.48 17.208c0.050 2.192 1.397 3.885 3.667 3.885 1.547 0 2.569-0.548 3.518-1.419l1.073 1.046c-0.948 0.996-2.42 1.893-4.615 1.893-3.293 0-5.289-2.391-5.289-5.578 0-2.814 1.971-5.329 5.164-5.329 2.694 0 4.316 1.793 4.815 4.134 0.15 0.722-0.424 1.37-1.148 1.37h-7.185zM47.898 13.199c-1.921 0-3.068 1.195-3.343 2.689h6.511c-0.249-1.37-1.322-2.689-3.168-2.689z"></path>
<path fill="#323232" style="fill: var(--color3, #323232)" d="M58.451 24.629c-0.474 1.295-1.272 2.341-2.869 2.341-0.624 0-1.098-0.075-1.597-0.274v-1.544c0.374 0.199 0.723 0.299 1.173 0.299 1.247 0 1.597-0.872 1.971-1.893l0.474-1.22-3.892-10.335h1.771l3.118 8.143 2.994-8.143h1.721l-4.865 12.626z"></path>
<path fill="#323232" style="fill: var(--color3, #323232)" d="M65.81 17.208c0.050 2.192 1.397 3.885 3.667 3.885 1.546 0 2.569-0.548 3.517-1.419l1.073 1.046c-0.973 0.996-2.42 1.893-4.616 1.893-3.293 0-5.288-2.391-5.288-5.578 0-2.814 1.971-5.329 5.164-5.329 2.694 0 4.316 1.793 4.814 4.134 0.15 0.722-0.424 1.37-1.148 1.37h-7.185zM69.228 13.199c-1.921 0-3.069 1.195-3.343 2.689h6.511c-0.224-1.37-1.322-2.689-3.168-2.689z"></path>
<path fill="#323232" style="fill: var(--color3, #323232)" d="M80.105 22.387c-1.847 0-3.019-0.722-3.019-2.764v-6.101h-1.521v-1.519h1.521v-4.806h1.647v4.806h1.946v1.519h-1.946v6.051c0 0.797 0.424 1.27 1.422 1.27h0.549v1.519c0 0-0.549 0.025-0.598 0.025z"></path>
<path fill="#323232" style="fill: var(--color3, #323232)" d="M84.021 17.208c0.050 2.192 1.397 3.885 3.668 3.885 1.546 0 2.569-0.548 3.517-1.419l1.073 1.046c-0.948 0.996-2.42 1.893-4.615 1.893-3.294 0-5.289-2.391-5.289-5.578 0-2.814 1.971-5.329 5.164-5.329 2.694 0 4.316 1.793 4.815 4.134 0.15 0.722-0.424 1.37-1.148 1.37h-7.185zM87.439 13.199c-1.921 0-3.069 1.195-3.343 2.689h6.511c-0.249-1.37-1.322-2.689-3.168-2.689z"></path>
<path fill="#323232" style="fill: var(--color3, #323232)" d="M94.698 22.313v-15.091h1.647v15.091h-1.647z"></path>
<path fill="#323232" style="fill: var(--color3, #323232)" d="M99.538 22.313v-15.091h1.647v15.091h-1.647z"></path>
<path fill="#323232" style="fill: var(--color3, #323232)" d="M104.228 9.389v-2.416h0.474c0.649 0 1.172 0.523 1.172 1.17v1.245h-1.646zM104.228 22.313v-10.31h1.646v10.285h-1.646v0.025z"></path>
<path fill="#323232" style="fill: var(--color3, #323232)" d="M122.24 17.208c0.050 2.192 1.397 3.885 3.668 3.885 1.546 0 2.569-0.548 3.518-1.419l1.072 1.046c-0.972 0.996-2.42 1.893-4.614 1.893-3.294 0-5.29-2.391-5.29-5.578 0-2.814 1.971-5.329 5.164-5.329 2.694 0 4.316 1.793 4.815 4.134 0.15 0.722-0.423 1.37-1.147 1.37h-7.185zM125.658 13.199c-1.921 0-3.069 1.195-3.343 2.689h6.511c-0.25-1.37-1.322-2.689-3.168-2.689z"></path>
<path fill="#323232" style="fill: var(--color3, #323232)" d="M139.952 22.313v-6.574c0-1.469-0.823-2.515-2.42-2.515-1.921 0-2.969 1.693-2.969 3.138v5.952h-1.647v-9.139c0-0.647 0.524-1.17 1.173-1.17h0.474v1.494c0.624-1.121 1.846-1.793 3.218-1.793 2.32 0 3.817 1.494 3.817 3.76v6.848h-1.647z"></path>
<path fill="#323232" style="fill: var(--color3, #323232)" d="M148.958 22.612c-3.217 0-5.238-2.416-5.238-5.479 0-2.963 2.145-5.429 5.114-5.429 2.346 0 3.668 1.195 4.416 2.167l-1.248 0.971c-0.673-0.872-1.646-1.594-3.093-1.594-2.121 0-3.518 1.818-3.518 3.81 0 2.341 1.472 4.034 3.493 4.034 1.472 0 2.495-0.722 3.367-1.893l1.198 0.872c-0.948 1.395-2.545 2.54-4.491 2.54z"></path>
<path fill="#323232" style="fill: var(--color3, #323232)" d="M156.567 17.208c0.049 2.192 1.397 3.885 3.666 3.885 1.547 0 2.57-0.548 3.518-1.419l1.073 1.046c-0.949 0.996-2.42 1.893-4.615 1.893-3.292 0-5.289-2.391-5.289-5.578 0-2.814 1.97-5.329 5.164-5.329 2.694 0 4.315 1.793 4.814 4.134 0.15 0.722-0.423 1.37-1.147 1.37h-7.184zM159.985 13.199c-1.921 0-3.070 1.195-3.344 2.689h6.512c-0.25-1.37-1.322-2.689-3.168-2.689z"></path>
<path fill="#000" style="fill: var(--color4, #000)" d="M18.644 0c-10.803 0-18.644 5.728-18.644 16.062 0 9.488 8.909 15.938 18.401 15.938 9.977 0 18.522-6.574 18.522-16.187 0-10.21-8.788-15.813-18.279-15.813zM21.605 25.675c-5.729 0-11.070-3.063-11.070-7.595 0-4.931 4.709-7.645 11.215-7.645 5.729 0 11.021 2.665 11.021 7.546-0.024 4.557-5.171 7.695-11.167 7.695z"></path>
</symbol>
<symbol id="icon-faq-icon" viewBox="0 0 32 32">
<path fill="none" stroke="#e8e8e8" style="stroke: var(--color1, #e8e8e8)" stroke-linejoin="miter" stroke-linecap="butt" stroke-miterlimit="4" stroke-width="2.1333" d="M30.933 16c0 8.247-6.686 14.933-14.933 14.933s-14.933-6.686-14.933-14.933c0-8.247 6.686-14.933 14.933-14.933s14.933 6.686 14.933 14.933z"></path>
<path d="M16.915 9.6h-1.829v12.8h1.829v-12.8z"></path>
<path d="M22.4 15.085h-12.8v1.829h12.8v-1.829z"></path>
</symbol>
<symbol id="icon-plus" viewBox="0 0 32 32">
<path d="M31 12h-11v-11c0-0.552-0.448-1-1-1h-6c-0.552 0-1 0.448-1 1v11h-11c-0.552 0-1 0.448-1 1v6c0 0.552 0.448 1 1 1h11v11c0 0.552 0.448 1 1 1h6c0.552 0 1-0.448 1-1v-11h11c0.552 0 1-0.448 1-1v-6c0-0.552-0.448-1-1-1z"></path>
</symbol>
</defs>
</svg>
