<svg width="134" height="26" viewBox="0 0 134 26" fill="none" xmlns="http://www.w3.org/2000/svg">
<path d="M91.9823 22.0142C90.6855 22.0142 89.4083 21.6298 88.5163 20.7597L89.2664 19.8087C90.1175 20.5169 91.0297 20.8002 91.9621 20.8002C93.4417 20.8002 94.7391 19.9504 94.7391 18.2913V16.7535C94.2323 17.6843 93.1782 18.352 91.9016 18.352C89.6314 18.352 88.0302 16.6321 88.0302 13.9815C88.0302 11.594 89.5703 9.48975 91.9419 9.48975C94.2323 9.48975 94.8204 11.0072 94.8204 11.0072V9.48975C95.5297 9.48975 96.0971 10.0562 96.0971 10.7644V11.2095V18.0484C96.0769 20.78 94.2323 22.0142 91.9823 22.0142ZM92.0636 10.7644C90.3407 10.7644 89.3881 12.2819 89.3881 13.9208C89.3881 15.7823 90.3608 17.1379 92.104 17.1379C93.7052 17.1379 94.8002 15.6002 94.8002 13.9613C94.8002 12.2415 93.6851 10.7644 92.0636 10.7644Z" fill="#323232"/>
<path d="M36.1404 13.9813C36.1809 15.7619 37.2755 17.1378 39.12 17.1378C40.3767 17.1378 41.2077 16.6926 41.978 15.9845L42.8495 16.8343C42.0793 17.6436 40.8834 18.372 39.0997 18.372C36.4242 18.372 34.8026 16.4296 34.8026 13.8397C34.8026 11.5533 36.4039 9.50977 38.9984 9.50977C41.1875 9.50977 42.505 10.9666 42.9104 12.8685C43.032 13.4553 42.5658 13.9813 41.978 13.9813H36.1404ZM38.9173 10.7238C37.3565 10.7238 36.4242 11.695 36.2012 12.909H41.4915C41.2888 11.7961 40.4172 10.7238 38.9173 10.7238Z" fill="#323232"/>
<path d="M47.4912 20.0108C47.1061 21.063 46.4574 21.9128 45.1602 21.9128C44.6535 21.9128 44.2684 21.8521 43.8629 21.6902V20.4357C44.167 20.5976 44.4507 20.6785 44.8156 20.6785C45.8291 20.6785 46.1128 19.9704 46.4169 19.1408L46.802 18.1493L43.64 9.75244H45.0791L47.6128 16.3688L50.0451 9.75244H51.4437L47.4912 20.0108Z" fill="#323232"/>
<path d="M53.4706 13.9813C53.5111 15.7619 54.6056 17.1378 56.4504 17.1378C57.7069 17.1378 58.5378 16.6926 59.3081 15.9845L60.18 16.8343C59.3894 17.6436 58.2137 18.372 56.4297 18.372C53.7543 18.372 52.1328 16.4296 52.1328 13.8397C52.1328 11.5533 53.7341 9.50977 56.3288 9.50977C58.5176 9.50977 59.8352 10.9666 60.2405 12.8685C60.3622 13.4553 59.8957 13.9813 59.3081 13.9813H53.4706ZM56.2475 10.7238C54.6867 10.7238 53.7543 11.695 53.5314 12.909H58.8215C58.6393 11.7961 57.7472 10.7238 56.2475 10.7238Z" fill="#323232"/>
<path d="M65.0853 18.1896C63.5849 18.1896 62.6323 17.6029 62.6323 15.9437V10.9865H61.3961V9.75226H62.6323V5.84717H63.9701V9.75226H65.5512V10.9865H63.9701V15.9032C63.9701 16.5507 64.3149 16.9352 65.1256 16.9352H65.5714V18.1694C65.5714 18.1694 65.1256 18.1896 65.0853 18.1896Z" fill="#323232"/>
<path d="M68.2671 13.9813C68.3081 15.7619 69.4025 17.1378 71.2471 17.1378C72.5036 17.1378 73.3345 16.6926 74.1048 15.9845L74.9767 16.8343C74.2063 17.6436 73.0104 18.372 71.2269 18.372C68.5508 18.372 66.9294 16.4296 66.9294 13.8397C66.9294 11.5533 68.5307 9.50977 71.1254 9.50977C73.3143 9.50977 74.6319 10.9666 75.0372 12.8685C75.1589 13.4553 74.693 13.9813 74.1048 13.9813H68.2671ZM71.0441 10.7238C69.4832 10.7238 68.5508 11.695 68.3283 12.909H73.6182C73.4158 11.7961 72.5439 10.7238 71.0441 10.7238Z" fill="#323232"/>
<path d="M76.9423 18.1292V5.86768H78.2801V18.1292H76.9423Z" fill="#323232"/>
<path d="M80.8749 18.1292V5.86768H82.2127V18.1292H80.8749Z" fill="#323232"/>
<path d="M84.6852 7.62819V5.66553H85.0704C85.5974 5.66553 86.0229 6.09043 86.0229 6.61652V7.62819H84.6852ZM84.6852 18.1294V9.75267H86.0229V18.1091H84.6852V18.1294Z" fill="#323232"/>
<path d="M99.3198 13.9813C99.3607 15.7619 100.455 17.1378 102.3 17.1378C103.556 17.1378 104.387 16.6926 105.158 15.9845L106.029 16.8343C105.239 17.6436 104.063 18.372 102.28 18.372C99.6035 18.372 97.9821 16.4296 97.9821 13.8397C97.9821 11.5533 99.5833 9.50977 102.178 9.50977C104.367 9.50977 105.685 10.9666 106.09 12.8685C106.212 13.4553 105.746 13.9813 105.158 13.9813H99.3198ZM102.097 10.7238C100.536 10.7238 99.6035 11.695 99.3809 12.909H104.671C104.468 11.7961 103.597 10.7238 102.097 10.7238Z" fill="#323232"/>
<path d="M113.711 18.1292V12.7876C113.711 11.5938 113.042 10.744 111.745 10.744C110.184 10.744 109.333 12.1199 109.333 13.2935V18.1292H107.995V10.7035C107.995 10.1775 108.421 9.75256 108.948 9.75256H109.333V10.9666C109.84 10.0561 110.833 9.50977 111.948 9.50977C113.833 9.50977 115.049 10.7238 115.049 12.565V18.1292H113.711Z" fill="#323232"/>
<path d="M121.028 18.372C118.414 18.372 116.772 16.4094 116.772 13.9207C116.772 11.5129 118.515 9.50977 120.927 9.50977C122.833 9.50977 123.907 10.481 124.515 11.2701L123.501 12.0592C122.954 11.351 122.164 10.7643 120.988 10.7643C119.265 10.7643 118.13 12.2413 118.13 13.86C118.13 15.7619 119.326 17.1378 120.968 17.1378C122.164 17.1378 122.995 16.551 123.704 15.6L124.677 16.3082C123.907 17.4413 122.609 18.372 121.028 18.372Z" fill="#323232"/>
<path d="M127.211 13.9813C127.251 15.7619 128.346 17.1378 130.19 17.1378C131.447 17.1378 132.278 16.6926 133.048 15.9845L133.92 16.8343C133.149 17.6436 131.954 18.372 130.17 18.372C127.495 18.372 125.873 16.4296 125.873 13.8397C125.873 11.5533 127.474 9.50977 130.069 9.50977C132.258 9.50977 133.575 10.9666 133.98 12.8685C134.102 13.4553 133.636 13.9813 133.048 13.9813H127.211ZM129.988 10.7238C128.427 10.7238 127.494 11.695 127.271 12.909H132.562C132.359 11.7961 131.488 10.7238 129.988 10.7238Z" fill="#323232"/>
<path d="M15.1479 0C6.3708 0 0 4.6537 0 13.0506C0 20.7595 7.23867 26 14.9507 26C23.0572 26 30 20.6584 30 12.8483C30 4.55253 22.8599 0 15.1479 0ZM17.5543 20.8607C12.8994 20.8607 8.56015 18.372 8.56015 14.6895C8.56015 10.6833 12.3866 8.47783 17.6726 8.47783C22.3274 8.47783 26.6272 10.6428 26.6272 14.6086C26.6075 18.3113 22.426 20.8607 17.5543 20.8607Z" fill="url(#paint0_radial_1_479)"/>
<defs>
<radialGradient id="paint0_radial_1_479" cx="0" cy="0" r="1" gradientUnits="userSpaceOnUse" gradientTransform="translate(15.0525 13.0123) scale(14.2691 11.4599)">
<stop offset="0.00180756" stop-color="#323232" stop-opacity="0"/>
<stop offset="0.9986" stop-color="#888888"/>
</radialGradient>
</defs>
</svg>
