<svg width="87" height="38" viewBox="0 0 87 38" fill="none" xmlns="http://www.w3.org/2000/svg">
<path d="M63.6592 12.1514H55.2246L50.8982 18.9204L46.4992 12.1514H37.6283L46.2447 24.5249L37.7737 36.8256H46.0629C46.3901 36.3161 47.1172 35.2244 48.2079 33.5503C49.2986 31.8762 50.0984 30.6389 50.571 29.8746L55.1156 36.8256H63.9501C63.5865 36.2797 60.6417 32.0946 55.1156 24.2338L63.6592 12.1514Z" fill="#888888"/>
<path d="M28.0308 11.5693C21.0141 11.5693 15.3426 17.2465 15.3426 24.2703C15.3426 31.2941 21.0141 36.9713 28.0308 36.9713C35.0476 36.9713 40.7191 31.2941 40.7191 24.2703C40.7191 17.2465 35.0476 11.5693 28.0308 11.5693ZM28.0308 30.3115C24.6861 30.3115 21.9957 27.6184 21.9957 24.2703C21.9957 20.9222 24.6861 18.2291 28.0308 18.2291C31.3756 18.2291 34.0659 20.9222 34.0659 24.2703C34.0659 27.582 31.3756 30.3115 28.0308 30.3115Z" fill="#888888"/>
<path d="M16.8692 12.1149H11.4885V10.2225C11.4885 8.98515 11.8157 8.11173 12.4701 7.63862C13.1245 7.12913 13.888 6.87438 14.7242 6.87438C15.5604 6.87438 16.2875 6.94716 16.9783 7.12913V0.942374C16.2512 0.578448 15.0514 0.396484 13.379 0.396484C10.4342 0.396484 8.1074 1.26991 6.43502 3.01676C4.76264 4.7636 3.92645 7.09273 3.92645 9.96775V12.1149H0V18.4836H3.92645V36.8983H11.4885V18.4836H15.0514C15.524 17.4282 16.1421 16.482 16.8692 15.6086V12.1149Z" fill="#888888"/>
<path d="M81.2194 23.689C83.1463 24.4169 85.5821 23.9074 86.8909 22.5244C87.0727 22.3061 87 21.9786 86.7819 21.8694C85.5458 21.2507 84.7096 20.1953 84.0188 18.9944C83.9097 18.776 83.7643 18.594 83.6553 18.3757C84.5642 18.4121 85.3276 18.1937 85.3276 18.1937C85.0004 18.2665 84.5278 18.1209 83.9825 17.8298C84.3824 17.757 84.6732 17.6478 84.6732 17.6478C84.2733 17.7934 83.3644 17.2475 82.4919 16.5197C82.4555 16.4833 82.4555 16.4833 82.4191 16.4469C80.2378 14.4089 76.8567 12.2617 72.3485 12.2617C67.8404 12.2617 63.1504 15.6462 61.3326 20.0134C60.8237 20.9232 59.9875 22.1969 59.1149 22.1969C59.1149 22.1969 60.1329 22.3061 60.6782 22.015C60.4601 22.9976 59.9875 25.3631 60.0238 25.8362L61.5871 22.9976C61.1509 23.8346 60.3147 26.1273 61.4417 29.1115C61.5871 27.947 62.0234 26.8188 62.0234 26.8188C61.7689 28.784 61.9507 29.9849 62.3506 31.1131C62.6778 31.9138 63.1141 32.6416 63.6958 33.3331C66.168 35.9897 69.7672 37.591 73.6937 37.3363C73.6937 37.3363 73.6937 37.3363 73.7301 37.3363C79.8742 36.9359 84.8914 31.9865 85.4003 25.8726C85.4367 25.3267 85.4731 24.6352 85.4367 24.1257C85.4367 24.1257 84.0188 24.89 82.2737 24.708C80.7468 24.526 79.038 23.2887 78.6745 22.9612C78.6745 22.9976 78.6745 23.0339 78.7108 23.0339C78.7472 23.1067 78.7472 23.1795 78.7835 23.2523C78.8199 23.3251 78.8199 23.4343 78.8563 23.507C78.8926 23.6162 78.8926 23.689 78.929 23.7982C78.929 23.871 78.9653 23.9438 78.9653 24.0165C79.0017 24.3077 79.038 24.5988 79.038 24.89C79.038 28.2381 76.3113 30.9675 72.9666 30.9675C69.6218 30.9675 66.8951 28.2381 66.8951 24.89V24.9264C66.8951 23.3251 67.5132 21.833 68.5311 20.7412C68.5311 20.7412 68.5311 20.7412 68.5675 20.7048C68.8947 20.3773 69.2583 20.0497 69.6582 19.795L69.6945 19.7586C69.6945 19.7586 69.7309 19.7586 69.7309 19.7222C69.8036 19.6858 69.84 19.6494 69.9127 19.613C69.9854 19.5766 70.0217 19.5403 70.0945 19.5039C70.0945 19.5039 70.0944 19.5039 70.1308 19.5039C70.2762 19.4311 70.4217 19.3583 70.5671 19.2855C70.6034 19.2855 70.6034 19.2491 70.6398 19.2491C71.3669 18.9216 72.1667 18.776 73.0029 18.776C73.1847 18.776 73.3665 18.776 73.5483 18.8124C74.1663 18.8488 74.7844 19.0308 75.3661 19.2491C75.4024 19.2491 75.4024 19.2491 75.4388 19.2855C75.6206 19.3583 75.766 19.4311 75.9478 19.5402C75.9478 19.5402 75.9841 19.5403 75.9841 19.5766C76.3477 19.795 76.7112 20.0497 77.0385 20.3045C77.2929 20.5956 77.5838 21.0323 77.7292 21.6874C77.7656 21.5782 78.2746 21.0323 76.6022 18.5576C76.5295 18.3757 76.4568 18.2665 76.4568 18.2665C77.2929 19.977 79.8742 23.1795 81.2194 23.689ZM81.8375 21.8694C81.5466 21.3599 81.4375 20.7776 81.4739 20.7412C81.9829 20.9232 82.4919 21.1051 83.0372 21.3235C83.2917 21.4327 83.5462 21.1779 83.4735 20.9232C83.2917 20.0134 83.1099 18.9944 83.1463 18.958C83.5825 19.5766 84.6005 21.1779 86.2365 22.015C86.491 22.1241 86.491 22.5244 86.2365 22.6336C83.6916 24.0529 80.7104 23.5798 79.0744 21.3963C80.8195 22.015 81.2194 22.1605 81.6193 22.1605C81.8011 22.1969 81.9102 22.015 81.8375 21.8694Z" fill="#888888"/>
<path d="M82.7465 14.6639H83.1464V13.1718H83.7281V12.7715H82.1648V13.1718H82.7465V14.6639Z" fill="#888888"/>
<path d="M84.3825 13.4266L84.8914 14.6639H85.2186L85.7276 13.4266V14.6639H86.1275V12.7715H85.5459L85.0732 14.0452L84.5279 12.7715H83.9825V14.6639H84.3825V13.4266Z" fill="#888888"/>
</svg>
