<svg width="130" height="33" viewBox="0 0 130 33" fill="none" xmlns="http://www.w3.org/2000/svg">
<path d="M84.6157 11.4722H82.906V8.52891H80.3733V11.4722H78.6537V4.42383H80.3733V7.22186H82.906V4.42383H84.6157V11.4722Z" fill="#888888"/>
<path d="M87.5404 11.4722H85.8258V4.42383H87.5404V11.4722Z" fill="#888888"/>
<path d="M94.5751 10.6009C94.3105 10.8914 93.9235 11.1253 93.414 11.3028C92.9044 11.4803 92.346 11.5691 91.7386 11.5691C90.8045 11.5691 90.0582 11.2867 89.4998 10.7219C88.9412 10.1572 88.6424 9.37132 88.6032 8.36441L88.5984 7.75446C88.5984 7.0606 88.7224 6.45549 88.9706 5.93912C89.2188 5.41954 89.5732 5.02097 90.0337 4.74342C90.4975 4.46265 91.0331 4.32227 91.6405 4.32227C92.5289 4.32227 93.218 4.52398 93.7079 4.92738C94.2011 5.32756 94.4885 5.92622 94.5702 6.72335H92.9143C92.8556 6.32963 92.7281 6.04886 92.5322 5.88104C92.3363 5.71322 92.0586 5.62931 91.6993 5.62931C91.2682 5.62931 90.9351 5.81004 90.7 6.17148C90.4648 6.53294 90.3456 7.04931 90.3423 7.72057V8.14658C90.3423 8.85012 90.4632 9.37939 90.7049 9.73439C90.9498 10.0862 91.3335 10.2621 91.8561 10.2621C92.3036 10.2621 92.6367 10.1636 92.8555 9.96675V8.87271H91.6602V7.70605H94.5751V10.6009Z" fill="#888888"/>
<path d="M101.537 11.4722H99.8269V8.52891H97.2941V11.4722H95.5746V4.42383H97.2941V7.22186H99.8269V4.42383H101.537V11.4722Z" fill="#888888"/>
<path d="M82.3329 18.2379C82.3329 17.9895 82.243 17.7959 82.0634 17.6571C81.887 17.5183 81.5751 17.3747 81.1278 17.2263C80.6803 17.0778 80.3145 16.9342 80.0303 16.7954C79.1061 16.3469 78.6439 15.7304 78.6439 14.9462C78.6439 14.5557 78.7582 14.2119 78.9868 13.9151C79.2188 13.6149 79.5453 13.3826 79.9667 13.218C80.3879 13.0502 80.8615 12.9663 81.3873 12.9663C81.9002 12.9663 82.359 13.0566 82.764 13.2373C83.1722 13.4181 83.489 13.6763 83.7143 14.0119C83.9398 14.3444 84.0524 14.7251 84.0524 15.1543H82.3378C82.3378 14.8671 82.2479 14.6445 82.0683 14.4863C81.892 14.3282 81.6519 14.249 81.3482 14.249C81.0412 14.249 80.7978 14.3169 80.6182 14.4524C80.4418 14.5847 80.3536 14.7541 80.3536 14.9607C80.3536 15.1415 80.4517 15.306 80.6476 15.4545C80.8435 15.5998 81.1881 15.7513 81.6813 15.9095C82.1745 16.0645 82.5794 16.2323 82.8962 16.413C83.667 16.8519 84.0524 17.457 84.0524 18.2283C84.0524 18.8447 83.8172 19.3288 83.3469 19.6806C82.8767 20.0324 82.2315 20.2083 81.4118 20.2083C80.8338 20.2083 80.3095 20.1066 79.8392 19.9032C79.3723 19.6967 79.0195 19.416 78.781 19.0609C78.546 18.7028 78.4284 18.2912 78.4284 17.8265H80.1528C80.1528 18.2041 80.2507 18.4832 80.4468 18.664C80.646 18.8416 80.9677 18.9302 81.4118 18.9302C81.6959 18.9302 81.9197 18.8706 82.0831 18.7512C82.2496 18.6286 82.3329 18.4575 82.3329 18.2379Z" fill="#888888"/>
<path d="M87.359 17.4881L86.6535 18.2529V20.1118H84.934V13.0635H86.6535V16.1714L87.2512 15.2757L88.7896 13.0635H90.9157L88.5054 16.181L90.9157 20.1118H88.8777L87.359 17.4881Z" fill="#888888"/>
<path d="M93.184 20.1118H91.4693V13.0635H93.184V20.1118Z" fill="#888888"/>
<path d="M96.099 18.8047H99.0921V20.1118H94.3794V13.0635H96.099V18.8047Z" fill="#888888"/>
<path d="M101.536 18.8047H104.53V20.1118H99.8169V13.0635H101.536V18.8047Z" fill="#888888"/>
<path d="M84.253 23.0146H82.1122V28.751H80.3927V23.0146H78.2909V21.7026H84.253V23.0146Z" fill="#888888"/>
<path d="M87.6333 26.2629H86.7025V28.751H84.983V21.7026H87.7901C88.636 21.7026 89.2974 21.8883 89.7742 22.2594C90.2509 22.6305 90.4894 23.1549 90.4894 23.8326C90.4894 24.3232 90.3882 24.7299 90.1857 25.0526C89.9865 25.3753 89.6729 25.6367 89.245 25.8368L90.7344 28.6784V28.751H88.8923L87.6333 26.2629ZM86.7025 24.9509H87.7901C88.1167 24.9509 88.3617 24.867 88.5249 24.6993C88.6915 24.5282 88.7748 24.2909 88.7748 23.9876C88.7748 23.6842 88.6915 23.447 88.5249 23.276C88.3584 23.1017 88.1134 23.0146 87.7901 23.0146H86.7025V24.9509Z" fill="#888888"/>
<path d="M95.5795 27.4343H93.223L92.8115 28.751H90.9744L93.5905 21.7026H95.2071L97.8428 28.751H95.9959L95.5795 27.4343ZM93.6345 26.1224H95.1678L94.3987 23.6778L93.6345 26.1224Z" fill="#888888"/>
<path d="M100.199 28.751H98.4846V21.7026H100.199V28.751Z" fill="#888888"/>
<path d="M107.351 28.751H105.642L103.114 24.3652V28.751H101.394V21.7026H103.114L105.637 26.0885V21.7026H107.351V28.751Z" fill="#888888"/>
<path d="M110.271 28.751H108.557V21.7026H110.271V28.751Z" fill="#888888"/>
<path d="M117.424 28.751H115.714L113.186 24.3652V28.751H111.467V21.7026H113.186L115.709 26.0885V21.7026H117.424V28.751Z" fill="#888888"/>
<path d="M124.351 27.8797C124.087 28.1701 123.7 28.4041 123.19 28.5817C122.681 28.7591 122.122 28.8479 121.515 28.8479C120.581 28.8479 119.834 28.5655 119.276 28.0007C118.717 27.436 118.418 26.6501 118.379 25.6432L118.374 25.0332C118.374 24.3394 118.499 23.7342 118.747 23.218C118.995 22.6983 119.349 22.2998 119.81 22.0222C120.274 21.7415 120.809 21.6011 121.417 21.6011C122.305 21.6011 122.994 21.8028 123.484 22.2061C123.977 22.6064 124.265 23.2049 124.346 24.0022H122.69C122.632 23.6084 122.504 23.3276 122.308 23.1597C122.112 22.9921 121.835 22.9081 121.475 22.9081C121.044 22.9081 120.711 23.0888 120.476 23.4502C120.241 23.8117 120.122 24.3281 120.118 24.9994V25.4254C120.118 26.1289 120.239 26.6582 120.481 27.0131C120.726 27.3649 121.11 27.5408 121.632 27.5408C122.08 27.5408 122.413 27.4424 122.632 27.2455V26.1516H121.436V24.9848H124.351V27.8797Z" fill="#888888"/>
<path fill-rule="evenodd" clip-rule="evenodd" d="M122.918 10.4681C122.864 10.5212 122.834 10.5933 122.834 10.6684V18.6948C122.834 18.8513 122.705 18.9781 122.547 18.9781H109.791C109.632 18.9781 109.504 18.8513 109.504 18.6948V6.08965C109.504 5.93321 109.632 5.80639 109.791 5.80639H122.572C122.648 5.80639 122.72 5.77655 122.774 5.72342L123.348 5.1569C123.528 4.97846 123.4 4.67334 123.145 4.67334H108.644C108.486 4.67334 108.357 4.80016 108.357 4.95661V19.8279C108.357 19.9844 108.486 20.1111 108.644 20.1111H123.694C123.852 20.1111 123.98 19.9844 123.98 19.8279V10.1019C123.98 9.84947 123.671 9.72309 123.491 9.90153L122.918 10.4681Z" fill="#888888"/>
<path d="M111.439 10.8637L113.536 9.37566C113.725 9.24172 113.987 9.28027 114.129 9.46271L116.367 12.3545C116.526 12.561 116.835 12.5786 117.017 12.3917L128.739 0.40504C128.887 0.253691 129.125 0.232212 129.298 0.354541L129.63 0.589021C129.831 0.730701 129.87 1.00985 129.716 1.2002L116.585 17.4195C116.41 17.6356 116.076 17.6313 115.907 17.4107L111.347 11.4655C111.201 11.2751 111.242 11.0031 111.439 10.8637Z" fill="#888888"/>
<path d="M71.5215 0H2.86659C1.28342 0 0 1.26821 0 2.83262V30.1674C0 31.7318 1.28342 33 2.86659 33H71.5215C73.1047 33 74.3881 31.7318 74.3881 30.1674V2.83262C74.3881 1.26821 73.1047 0 71.5215 0Z" fill="#888888"/>
<path d="M26.4375 28.6094H20.5023V18.392H11.7099V28.6094H5.74072V4.1416H11.7099V13.8548H20.5023V4.1416H26.4375V28.6094Z" fill="white"/>
<path d="M42.3051 22.1057C42.3051 21.243 41.9933 20.5708 41.3697 20.089C40.7575 19.6073 39.6747 19.1088 38.1216 18.5934C36.5683 18.0781 35.2984 17.5796 34.312 17.0978C31.1036 15.5405 29.4993 13.4007 29.4993 10.6783C29.4993 9.32278 29.896 8.12963 30.6896 7.09894C31.4947 6.05704 32.6285 5.2504 34.091 4.67905C35.5535 4.09648 37.1975 3.80518 39.0228 3.80518C40.8028 3.80518 42.3958 4.11888 43.8016 4.74626C45.2188 5.37365 46.3186 6.2699 47.1009 7.43503C47.8832 8.58897 48.2743 9.91095 48.2743 11.4009H42.3221C42.3221 10.4039 42.0102 9.63087 41.3868 9.08191C40.7745 8.53295 39.9411 8.25847 38.8868 8.25847C37.821 8.25847 36.9764 8.49373 36.3529 8.96427C35.7406 9.42361 35.4344 10.0117 35.4344 10.7288C35.4344 11.3561 35.7747 11.9275 36.4549 12.4428C37.1352 12.947 38.3313 13.4735 40.0432 14.0225C41.7553 14.5603 43.161 15.1428 44.2608 15.7703C46.9365 17.2938 48.2743 19.3945 48.2743 22.072C48.2743 24.2119 47.4581 25.8923 45.8254 27.1135C44.1927 28.3346 41.9536 28.9452 39.1078 28.9452C37.1011 28.9452 35.2815 28.5922 33.6488 27.8865C32.0275 27.1694 30.8032 26.1949 29.9754 24.9624C29.1592 23.7189 28.751 22.2905 28.751 20.6772H34.7373C34.7373 21.988 35.0774 22.957 35.7576 23.5845C36.4492 24.2007 37.566 24.5087 39.1078 24.5087C40.0942 24.5087 40.8709 24.3014 41.4378 23.887C42.016 23.4612 42.3051 22.8674 42.3051 22.1057Z" fill="white"/>
<path d="M70.0773 8.69571H62.6455V28.6094H56.6762V8.69571H49.3805V4.1416H70.0773V8.69571Z" fill="white"/>
</svg>
