<svg width="147" height="20" viewBox="0 0 147 20" fill="none" xmlns="http://www.w3.org/2000/svg">
<g clip-path="url(#clip0_1_505)">
<path d="M42.1517 0.694336H32.8756L40.7463 10.2109L27.2538 19.9994H36.2488L44.1194 14.0176L49.1791 19.9994H58.4551L50.0223 10.2109L63.5148 0.694336H54.2387L46.6492 6.13239L42.1517 0.694336Z" fill="#888888"/>
<path d="M72.2292 13.7461L63.2342 0.422852L71.9481 0.694754L77.0078 8.57993L85.4406 0.694754H94.4355L78.9754 13.7461L77.2888 19.9998H70.5426L72.2292 13.7461Z" fill="#888888"/>
<path d="M99.214 0.422852L93.3111 5.86091H110.768C111.672 5.86091 112.182 6.9003 111.628 7.61494C111.422 7.88064 111.104 8.03613 110.768 8.03613H100.901L96.122 12.3866H108.624C109.444 12.3866 109.88 13.3553 109.336 13.9694C109.156 14.1732 108.896 14.2899 108.624 14.2899H94.1543L88.2514 19.9998H108.76C112.147 19.9998 115.179 17.8958 116.363 14.7222L117.064 12.8448C117.54 11.5697 116.597 10.2113 115.236 10.2113C116.56 10.2113 117.717 9.31591 118.048 8.03414L119.042 4.18879C119.534 2.28192 118.095 0.422852 116.125 0.422852H99.214Z" fill="#888888"/>
<path d="M126.199 0.422852L120.296 5.86091H137.753C138.657 5.86091 139.167 6.9003 138.613 7.61494C138.407 7.88064 138.089 8.03613 137.753 8.03613H127.886L123.107 12.3866H135.609C136.43 12.3866 136.865 13.3553 136.321 13.9694C136.141 14.1732 135.881 14.2899 135.609 14.2899H121.139L115.236 19.9998H135.745C139.132 19.9998 142.164 17.8958 143.348 14.7222L144.049 12.8448C144.525 11.5697 143.582 10.2113 142.221 10.2113C143.545 10.2113 144.702 9.31591 145.033 8.03414L146.027 4.18879C146.52 2.28192 145.08 0.422852 143.11 0.422852H126.199Z" fill="#888888"/>
<path fill-rule="evenodd" clip-rule="evenodd" d="M1.70654 17.2173C2.30626 17.7774 2.98869 18.2175 3.77453 18.5575C7.3408 20.072 11.0654 20.0262 14.8753 19.9794L15.0037 19.9778C16.4929 19.9778 18.11 19.7542 19.5533 19.3977C21.135 19.001 22.5739 18.5669 24.0201 17.8174C25.492 17.0547 26.6726 16.0388 27.7425 14.7968C28.3808 14.056 28.8205 13.2173 29.2108 12.3364C30.0888 10.298 30.8861 6.97167 30.1 4.955C30.0854 4.91825 30.0708 4.8813 30.0561 4.84421C29.8633 4.35654 29.6616 3.84653 29.3349 3.47473C28.6318 2.69458 27.8253 1.99445 26.7913 1.51436C25.6952 0.994263 24.5785 0.634196 23.4411 0.434159C21.887 0.158546 19.0313 -0.0934936 16.2031 0.0340837C13.9025 0.137868 11.5031 0.417404 9.29606 1.07428C7.52042 1.56502 6.13821 2.41846 4.62241 3.37471C3.93997 3.79479 3.44365 4.35489 2.94734 4.935C2.21031 5.64792 1.62558 6.59489 1.25158 7.53549C0.460154 9.55873 0.189032 11.4702 0.0107895 13.5966C-0.114157 14.8052 0.870368 16.4085 1.70654 17.2173ZM12.1087 5.7546C11.0748 5.93463 10.1235 6.21468 9.23424 6.75479C7.3506 7.8658 6.95945 10.3369 6.95945 12.2558C6.95945 12.7359 7.60053 13.6161 8.05549 13.7761C11.4552 14.93 16.5225 14.9486 19.8844 13.8361C20.6289 13.5961 21.2286 13.236 21.7663 12.7159C22.8573 11.6241 23.5241 9.76808 23.5241 8.25506C23.5241 7.09485 22.8209 6.13467 21.6629 5.91463C18.6208 5.34046 15.1537 5.22443 12.1087 5.7546Z" fill="#888888"/>
</g>
<defs>
<clipPath id="clip0_1_505">
<rect width="147" height="20" fill="white"/>
</clipPath>
</defs>
</svg>
