<svg width="56" height="57" viewBox="0 0 56 57" fill="none" xmlns="http://www.w3.org/2000/svg">
<g clip-path="url(#clip0_1_535)">
<path d="M46.9344 10.6243C46.9069 10.6243 46.852 10.583 46.8382 10.5143C46.8108 10.4182 46.852 10.3357 46.9619 10.322C47.0443 10.3082 47.0855 10.3632 47.0993 10.4319C47.1268 10.5281 47.0993 10.5968 46.9344 10.6243Z" fill="#888888"/>
<path d="M40.3808 27.0847C40.3533 27.0572 40.3121 27.016 40.3121 26.9885C40.3258 26.9061 40.3808 26.8786 40.4495 26.9198C40.477 26.9335 40.5045 27.0022 40.4907 27.0297C40.477 27.0572 40.422 27.0709 40.3808 27.0847Z" fill="#888888"/>
<path d="M20.967 13.4274C20.9807 13.3999 20.9945 13.3449 21.0357 13.3312C21.1181 13.3037 21.1594 13.3449 21.1731 13.4274C21.1731 13.4686 21.1456 13.5235 21.1181 13.5373C21.0494 13.5373 20.9807 13.5235 20.967 13.4274Z" fill="#888888"/>
<path d="M8.12011 14.3892C8.09263 14.4441 8.05141 14.4579 8.03767 14.4167C8.02393 14.3892 8.02393 14.348 8.02393 14.3067C8.02393 14.293 8.05141 14.2793 8.06514 14.2793C8.1201 14.3067 8.13384 14.3342 8.12011 14.3892Z" fill="#888888"/>
<path d="M55.8794 25.0228C55.8519 25.0777 55.8107 25.0915 55.7695 25.064C55.742 25.0503 55.7283 25.009 55.7008 24.9816C55.742 24.9678 55.7832 24.9404 55.8107 24.9404C55.8382 24.9404 55.8519 24.9953 55.8794 25.0228Z" fill="#888888"/>
<path d="M34.0335 12.1626C34.006 12.1488 33.9785 12.1351 33.951 12.1076C33.9647 12.0939 33.9785 12.0664 33.9922 12.0664C34.0197 12.0801 34.0472 12.0939 34.0746 12.1076C34.0609 12.1214 34.0473 12.1351 34.0335 12.1626Z" fill="#888888"/>
<path d="M19.0573 13.6607C19.0847 13.1523 19.3321 12.7676 19.5656 12.3829C20.9396 10.1708 22.3136 7.94496 23.6876 5.73286C24.773 3.97418 25.8722 2.22923 26.9576 0.470544C27.3286 -0.120265 27.8232 -0.134004 28.2217 0.456805C29.5407 2.47654 30.8597 4.49629 32.165 6.50229C33.8687 9.11284 35.5862 11.7371 37.2899 14.3477C38.8836 16.7933 40.4775 19.239 42.0713 21.6847C43.2667 23.5258 44.4758 25.3532 45.6711 27.1806C46.0833 27.8126 46.0971 28.4859 45.7124 29.1316C43.7476 32.4154 41.7553 35.6992 39.7768 38.983C39.2271 39.8898 38.6776 40.7967 38.128 41.7035C37.7845 42.2668 37.3036 42.2943 36.9464 41.7447C35.8747 40.1097 34.8167 38.4746 33.7588 36.8396C32.426 34.7786 31.0933 32.7177 29.7605 30.6567C28.5239 28.7469 27.2874 26.8233 26.037 24.9135C24.7043 22.8663 23.3715 20.8191 22.0388 18.7719C21.1182 17.3704 20.1977 15.9689 19.3046 14.5538C19.1809 14.3064 19.1534 13.9629 19.0573 13.6607Z" fill="#888888"/>
<path d="M0.0961778 13.1114C-0.0686991 12.4656 0.357233 12.0122 0.645767 11.5451C2.77543 8.09638 4.93257 4.64771 7.07597 1.1853C7.26832 0.88302 7.4332 0.580746 7.6393 0.292211C7.92783 -0.0925019 8.3675 -0.0925021 8.6423 0.305951C9.35676 1.37765 10.0575 2.46309 10.772 3.54853C12.0085 5.44462 13.2589 7.35444 14.4954 9.25052C15.6358 11.0092 16.7762 12.7679 17.9166 14.5266C19.2219 16.5463 20.5409 18.5523 21.8599 20.5721C22.753 21.9461 23.6461 23.32 24.5392 24.7078C25.1025 25.5734 25.6796 26.439 26.2429 27.3183C26.6139 27.8954 26.6414 28.5411 26.2979 29.1045C25.1849 30.9868 24.0445 32.8554 22.9041 34.724C21.6676 36.7712 20.4447 38.8322 19.2082 40.8794C19.0021 41.2367 18.796 41.5801 18.5487 41.9236C18.2601 42.3358 17.8204 42.3358 17.5594 41.9099C16.5701 40.3298 15.5809 38.736 14.5916 37.156C13.2588 34.9988 11.9261 32.8554 10.5933 30.6983C9.16441 28.39 7.73547 26.0817 6.30654 23.7735C4.89135 21.4927 3.46241 19.1981 2.04722 16.9173C1.47015 15.983 0.879344 15.0625 0.329754 14.1144C0.164877 13.8259 0.109918 13.4686 0 13.1389C0.0137397 13.1252 0.0549585 13.1114 0.0961778 13.1114Z" fill="#888888"/>
<path d="M55.3163 12.4516C55.3575 13.0287 55.1514 13.4959 54.8629 13.963C53.1179 16.8209 51.4005 19.7062 49.6693 22.5778C48.9823 23.7182 48.2815 24.8586 47.5808 25.999C47.2098 26.6036 46.7564 26.6036 46.3717 26.0128C44.4894 23.1412 42.5933 20.2696 40.7109 17.3979C40.0789 16.4362 39.4469 15.4744 38.8149 14.5126C38.4027 13.8668 38.4027 13.2073 38.7874 12.5753C40.7384 9.38768 42.7032 6.22754 44.668 3.03992C45.1626 2.22927 45.6573 1.41863 46.1519 0.621722C46.2068 0.539284 46.2618 0.443107 46.3168 0.360668C46.6603 -0.120223 47.1274 -0.120223 47.4572 0.360668C48.0205 1.15757 48.5563 1.95448 49.1197 2.75138C50.6448 4.96348 52.1699 7.16184 53.695 9.37394C54.1759 10.0747 54.6843 10.7342 55.1239 11.4624C55.2751 11.7372 55.2476 12.1219 55.3163 12.4516Z" fill="#888888"/>
<path d="M12.0088 49.3985C11.8302 50.1542 11.6791 50.8275 11.5142 51.5007C11.2394 52.7236 10.9646 53.9464 10.6761 55.1692C10.4975 55.9249 9.96163 56.3371 9.19221 56.3234C8.79376 56.3234 8.38156 56.3096 8.01059 56.1997C7.79076 56.131 7.5297 55.8837 7.461 55.6639C7.24117 54.9357 7.07629 54.18 6.92515 53.438C6.65036 52.119 6.40304 50.8 6.14199 49.481C6.01833 48.849 5.88093 48.2032 5.77101 47.5712C5.71606 47.2277 5.85345 47.0903 6.19695 47.0765C6.65036 47.0765 7.11751 47.0903 7.57092 47.0765C7.84571 47.0628 7.96937 47.2139 7.99685 47.4612C8.18921 48.7665 8.36782 50.0581 8.56018 51.3633C8.71132 52.3663 8.8762 53.3693 9.10977 54.3861C9.19221 54.0701 9.27465 53.7403 9.34335 53.4243C9.72806 51.6793 10.099 49.9207 10.4837 48.1757C10.6074 47.6261 10.8272 47.4475 11.3768 47.4475C11.8165 47.4475 12.2699 47.4475 12.7096 47.4475C13.1217 47.4475 13.3553 47.6124 13.4515 48.0108C13.6576 48.8764 13.8362 49.742 14.0286 50.6076C14.3034 51.858 14.5919 53.122 14.9491 54.3861C15.0041 54.0701 15.059 53.754 15.1003 53.438C15.2789 52.2564 15.4575 51.0611 15.6224 49.8794C15.7323 49.1237 15.8422 48.3681 15.9521 47.6124C16.0071 47.1727 16.117 47.0765 16.5704 47.0765C16.9689 47.0765 17.3673 47.0765 17.7658 47.0765C18.1368 47.0765 18.2879 47.2689 18.2192 47.6124C17.9032 49.1787 17.6009 50.745 17.2849 52.3114C17.0925 53.2731 16.9002 54.2349 16.7078 55.1967C16.5429 56.0348 16.1582 56.3371 15.3064 56.3371C14.9766 56.3371 14.6331 56.3509 14.3171 56.2684C13.5477 56.0623 13.3553 55.4028 13.2042 54.7296C12.8195 53.0258 12.4348 51.3221 12.05 49.6184C12.0913 49.5634 12.0638 49.5222 12.0088 49.3985Z" fill="#888888"/>
<path d="M31.821 52.4889C31.821 53.5331 31.821 54.5636 31.821 55.6078C31.821 56.1986 31.7386 56.2948 31.1615 56.2948C30.8043 56.2948 30.447 56.2948 30.1035 56.2948C29.8013 56.2948 29.6501 56.1711 29.6501 55.8414C29.6501 51.9942 29.6501 48.1608 29.6501 44.3137C29.6501 44.0114 29.8013 43.874 30.0898 43.874C30.4882 43.874 30.8867 43.874 31.2851 43.874C31.7248 43.874 31.8347 43.9977 31.8347 44.4236C31.8347 46.4159 31.8347 48.4082 31.8347 50.4004C31.8347 50.5241 31.8347 50.6477 31.8347 50.8813C31.9721 50.7302 32.0546 50.6477 32.1233 50.5516C32.9064 49.5073 33.6759 48.4631 34.459 47.4189C34.6376 47.1853 34.8437 47.0617 35.1598 47.0754C35.6681 47.1029 36.1902 47.0754 36.6986 47.0891C36.8085 47.0891 36.9734 47.1441 37.0146 47.2128C37.0558 47.2952 36.9871 47.4601 36.9184 47.5426C35.9429 48.7654 34.9537 49.9745 33.9507 51.1698C33.772 51.3897 33.772 51.5271 33.9369 51.7607C34.9537 53.1209 35.9567 54.4949 36.9597 55.8688C37.1245 56.0887 37.0421 56.281 36.781 56.2948C36.1215 56.3085 35.4483 56.3222 34.7888 56.281C34.6239 56.2673 34.4453 56.1024 34.3354 55.9513C33.6072 54.9345 32.9064 53.8903 32.192 52.8598C32.1095 52.7362 32.0134 52.6125 31.9172 52.4751C31.876 52.4614 31.8485 52.4751 31.821 52.4889Z" fill="#888888"/>
<path d="M38.7322 52.4348C38.5673 53.4927 39.268 54.4408 40.271 54.4545C41.3152 54.4682 42.3457 54.3995 43.3899 54.3583C43.8708 54.3308 43.9395 54.3721 43.9395 54.8392C43.9395 55.1277 43.9258 55.4163 43.9395 55.6911C43.9533 55.9659 43.8159 56.062 43.5686 56.117C42.2358 56.433 40.8756 56.3781 39.5428 56.2681C38.32 56.172 37.3719 55.4438 36.8773 54.2759C36.6712 53.7813 36.5476 53.2179 36.5201 52.6958C36.4789 51.7753 36.4789 50.8409 36.6025 49.9341C36.8223 48.2579 38.1414 47.1037 39.8451 46.9801C40.8069 46.9114 41.7412 46.9801 42.5793 47.5159C43.5411 48.1342 44.0357 49.041 44.2006 50.1265C44.283 50.7173 44.2693 51.3356 44.283 51.9401C44.2968 52.3248 44.1868 52.4348 43.8021 52.4348C42.2633 52.4348 40.7382 52.4348 39.1993 52.4348C39.0344 52.4348 38.8971 52.4348 38.7322 52.4348ZM42.0572 50.8547C42.0572 50.099 41.8786 49.4395 41.2053 49.0685C40.6557 48.7662 40.0512 48.7662 39.5153 49.096C38.8696 49.4807 38.6635 50.1127 38.7047 50.8684C39.8314 50.8547 40.9305 50.8547 42.0572 50.8547Z" fill="#888888"/>
<path d="M23.3162 55.7333C23.1101 55.8295 22.9727 55.8982 22.8353 55.9806C21.9423 56.4615 20.953 56.4066 20.0187 56.2692C19.1393 56.1318 18.576 55.5272 18.3424 54.6204C18.1501 53.8372 18.1501 53.0678 18.4661 52.3396C18.8646 51.4191 19.6889 51.0343 20.6232 50.9107C21.3652 50.8145 22.1209 50.8145 22.8766 50.787C23.1239 50.787 23.2338 50.7046 23.2063 50.4573C23.1926 50.2924 23.2063 50.1138 23.2063 49.9489C23.1788 49.1932 22.8353 48.8222 22.0934 48.8085C21.3927 48.7948 20.6782 48.836 19.9637 48.8635C19.7027 48.8772 19.4416 48.9047 19.1806 48.9184C18.892 48.9459 18.7546 48.8222 18.7546 48.5337C18.7546 48.2452 18.7546 47.9566 18.7546 47.6818C18.7546 47.4345 18.8508 47.2834 19.0844 47.2422C19.5515 47.1597 20.0324 47.0498 20.4996 47.0361C21.3789 47.0223 22.272 46.9674 23.1239 47.1048C24.5665 47.3383 25.3909 48.4375 25.4047 49.9901C25.4184 51.9137 25.4047 53.8372 25.4047 55.7471C25.4047 56.1593 25.281 56.2829 24.8688 56.2829C24.5391 56.2829 24.2093 56.2829 23.8796 56.2829C23.5498 56.2967 23.3025 56.2005 23.3162 55.7333ZM23.2063 52.2847C22.588 52.2847 22.011 52.2297 21.4476 52.2984C20.5683 52.4083 20.1011 53.6037 20.6095 54.3319C20.6782 54.4281 20.8156 54.5105 20.9393 54.5517C21.6812 54.799 22.3819 54.5792 23.0552 54.2632C23.1239 54.2357 23.1926 54.112 23.1926 54.0296C23.2201 53.4525 23.2063 52.8892 23.2063 52.2847Z" fill="#888888"/>
<path d="M26.4214 50.0438C26.4214 48.1615 26.4214 46.2654 26.4214 44.3831C26.4214 43.9571 26.5313 43.8472 26.9435 43.8472C27.3145 43.8472 27.6992 43.8472 28.0702 43.8472C28.5099 43.8472 28.6198 43.9571 28.6198 44.3831C28.6198 45.3586 28.6198 46.3204 28.6198 47.2959C28.6198 50.0576 28.6198 52.833 28.6198 55.5947C28.6198 56.1992 28.5511 56.2679 27.9603 56.2679C27.6305 56.2679 27.3008 56.2679 26.971 56.2679C26.5313 56.2679 26.4214 56.158 26.4214 55.7184C26.4214 53.836 26.4214 51.9399 26.4214 50.0438Z" fill="#888888"/>
<path d="M47.0581 47.5571C47.6077 47.3785 48.1435 47.1862 48.6794 47.0075C48.6931 47.0075 48.7069 47.0075 48.7069 46.9938C49.545 46.8427 49.6687 46.9388 49.6687 47.777C49.6687 47.9556 49.6549 48.1479 49.6687 48.3266C49.6824 48.6426 49.5587 48.7525 49.2427 48.8074C48.6382 48.9174 48.0474 49.0822 47.4566 49.2196C47.1818 49.2883 47.1131 49.4532 47.1131 49.7143C47.1268 51.6928 47.1131 53.6713 47.1131 55.6498C47.1131 56.1719 47.0169 56.2681 46.481 56.2681C46.1101 56.2681 45.7528 56.2819 45.3819 56.2681C45.0246 56.2544 44.9147 56.1307 44.9147 55.7872C44.9147 53.0255 44.9147 50.2776 44.9147 47.5159C44.9147 47.1449 45.0109 47.0488 45.3819 47.0488C45.7116 47.0488 46.0414 47.0488 46.3711 47.0488C46.9482 47.0625 46.9619 47.0762 47.0581 47.5571Z" fill="#888888"/>
</g>
<defs>
<clipPath id="clip0_1_535">
<rect width="56" height="57" fill="white"/>
</clipPath>
</defs>
</svg>
